<?xml version="1.0" encoding="UTF-8"?>
<svg id="Layer_1" data-name="Layer 1" xmlns="http://www.w3.org/2000/svg" viewBox="0 0 563.79 219.7">
  <defs>
    <style>
      .cls-1 {
        fill: #eb600a;
      }
    </style>
  </defs>
  <path class="cls-1" d="M551.88,152.27c2.39,0,4.17.89,5.35,2.66,1.18,1.78,1.77,4.49,1.77,8.14s-.59,6.42-1.77,8.2c-1.18,1.78-2.98,2.66-5.4,2.66s-4.23-.89-5.4-2.66c-1.18-1.77-1.77-4.49-1.77-8.14s.6-6.38,1.79-8.17c1.19-1.79,3-2.69,5.43-2.69M551.88,148.64c-3.83,0-6.79,1.32-8.88,3.95-2.09,2.63-3.14,6.15-3.14,10.54s1.04,7.99,3.11,10.57c2.07,2.58,5.03,3.87,8.85,3.87s6.74-1.33,8.83-3.98c2.09-2.65,3.14-6.16,3.14-10.51s-1.03-7.99-3.08-10.57c-2.05-2.58-5-3.87-8.83-3.87M514.09,137.62l-4.43.47v38.9h4.43v-20.24c.84-1.23,1.93-2.3,3.27-3.22,1.34-.91,2.72-1.37,4.16-1.37,1.69,0,2.92.38,3.69,1.13.77.76,1.16,1.96,1.16,3.61v20.08h4.43v-20.14c0-5.48-2.6-8.22-7.8-8.22-1.69,0-3.32.39-4.9,1.16-1.58.77-2.92,1.86-4.01,3.27v-15.44ZM478.04,176.99h4.43v-20.19c.84-1.26,1.93-2.35,3.27-3.27,1.33-.91,2.76-1.37,4.27-1.37,1.37,0,2.39.26,3.06.79.67.53,1.11,1.34,1.34,2.42.23,1.09.34,2.67.34,4.74v16.87h4.43v-20.14c0-5.48-2.6-8.22-7.8-8.22-1.69,0-3.36.39-5.03,1.19-1.67.79-3.05,1.89-4.14,3.29l-.37-3.9h-3.8v27.78ZM460.49,149.22h-12.7v3.53h8.27v20.71h-8.54v3.53h20.77v-3.53h-7.8v-24.24ZM456.95,136.25c-.95,0-1.71.29-2.29.87-.58.58-.87,1.33-.87,2.24s.29,1.66.87,2.24c.58.58,1.34.87,2.29.87s1.77-.29,2.37-.87c.6-.58.9-1.33.9-2.24s-.3-1.66-.9-2.24c-.6-.58-1.39-.87-2.37-.87M437.5,140.68h-6.43l-5.64,24.88-5.9-24.88h-6.38l-2.06,36.32h4.32l.95-18.98c.14-2.14.21-4.83.21-8.06,0-2.11-.04-3.79-.11-5.06l6.54,25.56h4.58l6.11-25.56c0,5.41.11,9.79.32,13.12l1.11,18.98h4.43l-2.06-36.32ZM374.15,140.68h-4.64v24.72c0,2.74-.64,4.8-1.92,6.17-1.28,1.37-3.12,2.06-5.51,2.06s-4.22-.69-5.48-2.06c-1.26-1.37-1.9-3.43-1.9-6.17v-24.72h-4.59v24.56c0,2.42.48,4.57,1.45,6.43.97,1.86,2.35,3.31,4.14,4.35s3.92,1.56,6.38,1.56,4.54-.51,6.35-1.53,3.21-2.47,4.22-4.35c1-1.88,1.5-4.03,1.5-6.46v-24.56Z"/>
  <path class="cls-1" d="M518.9,113.73c-1.2,0-2.12-.3-2.77-.9-.65-.6-.97-1.44-.97-2.53,0-2.81,2.25-4.22,6.75-4.22h2.05v4.58c-.49.95-1.22,1.7-2.19,2.24-.97.55-1.92.82-2.87.82M531.97,110.73v-10.96c0-6.61-4.08-9.91-12.23-9.91-1.58,0-3.35.18-5.3.55-1.95.37-3.82.89-5.61,1.55l1.9,5.53c1.34-.46,2.71-.82,4.14-1.08,1.42-.26,2.61-.39,3.56-.39,3.69,0,5.53,1.44,5.53,4.32v1h-3.74c-4.32,0-7.68.83-10.07,2.5-2.39,1.67-3.58,4.01-3.58,7.04,0,2.6.86,4.72,2.58,6.35,1.72,1.63,4.02,2.45,6.9,2.45,1.83,0,3.55-.32,5.17-.97,1.62-.65,2.95-1.59,4.01-2.82.63,1.12,1.51,1.98,2.64,2.56,1.12.58,2.53.96,4.22,1.13l1.74-5.48c-.67-.25-1.14-.61-1.42-1.11-.28-.49-.42-1.25-.42-2.27M491.65,113.1c-1.97,0-3.5-.62-4.59-1.87-1.09-1.25-1.63-3.33-1.63-6.25,0-5.8,2.09-8.7,6.27-8.7,2.14,0,4.23.7,6.27,2.11l3.58-5.01c-1.44-1.19-2.99-2.08-4.64-2.66-1.65-.58-3.51-.87-5.59-.87-2.95,0-5.53.65-7.72,1.95-2.2,1.3-3.89,3.09-5.09,5.38-1.19,2.29-1.79,4.89-1.79,7.8s.58,5.48,1.74,7.7c1.16,2.21,2.82,3.94,4.98,5.17,2.16,1.23,4.73,1.84,7.72,1.84,2.07,0,3.99-.33,5.74-1,1.76-.67,3.3-1.56,4.64-2.69l-3.69-5.27c-1.12.77-2.18,1.36-3.16,1.77-.98.4-2,.61-3.06.61M462.24,90.81h-15.97v5.69h7.64v16.6h-7.91v5.69h23.4v-5.69h-7.17v-22.29ZM457.23,76.15c-1.44,0-2.63.45-3.56,1.34-.93.9-1.4,2.01-1.4,3.35s.46,2.45,1.4,3.35c.93.9,2.12,1.34,3.56,1.34s2.62-.44,3.53-1.32c.91-.88,1.37-2,1.37-3.37s-.46-2.45-1.37-3.35c-.91-.9-2.09-1.34-3.53-1.34M438.73,117.16l-2.74-5.32c-1.51.84-3.15,1.26-4.9,1.26-1.41,0-2.43-.3-3.06-.9-.63-.6-.95-1.58-.95-2.95v-12.7h8.17l.84-5.74h-9.01v-7.06l-8.33,1v6.06h-5.85v5.74h5.85v12.7c0,3.3.9,5.87,2.71,7.7,1.81,1.83,4.51,2.74,8.09,2.74s6.54-.84,9.17-2.53M397.67,74.78l-11.49,6.96,2.27,4.27,12.49-4.95-3.27-6.27ZM392.4,113.73c-1.19,0-2.12-.3-2.77-.9-.65-.6-.98-1.44-.98-2.53,0-2.81,2.25-4.22,6.75-4.22h2.05v4.58c-.49.95-1.22,1.7-2.19,2.24-.97.55-1.92.82-2.87.82M405.47,110.73v-10.96c0-6.61-4.08-9.91-12.23-9.91-1.58,0-3.35.18-5.3.55-1.95.37-3.82.89-5.61,1.55l1.9,5.53c1.33-.46,2.71-.82,4.14-1.08,1.42-.26,2.61-.39,3.56-.39,3.69,0,5.53,1.44,5.53,4.32v1h-3.74c-4.32,0-7.68.83-10.07,2.5-2.39,1.67-3.58,4.01-3.58,7.04,0,2.6.86,4.72,2.58,6.35,1.72,1.63,4.02,2.45,6.91,2.45,1.83,0,3.55-.32,5.16-.97,1.62-.65,2.95-1.59,4.01-2.82.63,1.12,1.51,1.98,2.64,2.56,1.12.58,2.53.96,4.22,1.13l1.74-5.48c-.67-.25-1.14-.61-1.42-1.11-.28-.49-.42-1.25-.42-2.27M371,89.86c-2.21,0-4.27,1.11-6.17,3.32-.32-1.12-.84-1.96-1.58-2.5-.74-.54-1.65-.82-2.74-.82-1.19,0-2.24.29-3.14.87-.9.58-1.8,1.5-2.71,2.77l-.58-2.69h-6.06v27.99h7.22v-20.61c.95-1.23,1.92-1.85,2.9-1.85.53,0,.89.19,1.08.58.19.39.29,1.09.29,2.11v19.76h5.9v-20.61c.95-1.23,1.91-1.85,2.9-1.85.53,0,.89.19,1.08.58s.29,1.09.29,2.11v19.76h7.12v-20.71c0-2.85-.47-4.93-1.4-6.25-.93-1.32-2.4-1.98-4.4-1.98M340.01,89.96c-2.25,0-4.15.59-5.69,1.77-1.55,1.18-2.83,2.96-3.85,5.35l-1.48-6.27h-10.07v5.53h3.69v16.87h-3.69v5.59h17.55v-5.59h-5.53v-8.01c.67-2.14,1.6-3.92,2.79-5.32,1.19-1.41,2.56-2.25,4.11-2.53v5.17h5.27l1.53-11.7c-1.41-.56-2.95-.84-4.64-.84M299.16,96.02c1.72,0,2.99.69,3.79,2.08.81,1.39,1.21,3.59,1.21,6.61s-.4,5.34-1.21,6.75c-.81,1.41-2.07,2.11-3.79,2.11s-2.99-.69-3.79-2.08c-.81-1.39-1.21-3.63-1.21-6.72s.4-5.28,1.21-6.67c.81-1.39,2.07-2.08,3.79-2.08M299.16,89.86c-2.81,0-5.24.62-7.3,1.87-2.05,1.25-3.62,2.99-4.69,5.22-1.07,2.23-1.61,4.84-1.61,7.83,0,4.71,1.19,8.37,3.58,10.99,2.39,2.62,5.73,3.93,10.01,3.93s7.62-1.32,10.01-3.95c2.39-2.64,3.58-6.31,3.58-11.02s-1.2-8.14-3.61-10.83c-2.41-2.69-5.74-4.03-9.99-4.03M273.23,78.79c-3.69,0-6.54.9-8.57,2.71-2.02,1.81-3.03,4.16-3.03,7.04v4.01h-5.9v5.8h5.9v20.45h8.27v-20.45h8.17l.95-5.8h-9.12v-3.74c0-1.37.36-2.35,1.08-2.95.72-.6,1.91-.9,3.56-.9,2.18,0,4.16.35,5.96,1.05l2.32-5.43c-2.81-1.19-6.01-1.79-9.59-1.79M223.79,118.79h8.33v-19.55c.84-1.05,1.66-1.85,2.45-2.4.79-.54,1.61-.82,2.45-.82,1.02,0,1.72.33,2.11,1,.39.67.58,1.88.58,3.64v18.13h8.33v-20.56c0-2.64-.68-4.69-2.03-6.17-1.35-1.48-3.24-2.21-5.67-2.21-1.76,0-3.33.34-4.72,1.03-1.39.68-2.71,1.73-3.98,3.14l-.58-3.21h-7.27v27.99ZM216.15,82.27h-23.72v6.32h7.54v23.82h-7.54v6.38h23.72v-6.38h-7.54v-23.82h7.54v-6.32Z"/>
  <path class="cls-1" d="M487.27,55.54c-1.2,0-2.12-.3-2.77-.9-.65-.6-.98-1.44-.98-2.53,0-2.81,2.25-4.22,6.75-4.22h2.05v4.59c-.49.95-1.22,1.7-2.19,2.24-.97.54-1.92.82-2.87.82M500.35,52.53v-10.96c0-6.61-4.08-9.91-12.23-9.91-1.58,0-3.35.18-5.3.55-1.95.37-3.82.89-5.61,1.55l1.9,5.53c1.33-.46,2.71-.82,4.14-1.08,1.42-.26,2.61-.4,3.56-.4,3.69,0,5.53,1.44,5.53,4.32v1h-3.74c-4.32,0-7.68.84-10.07,2.5-2.39,1.67-3.58,4.01-3.58,7.04,0,2.6.86,4.72,2.58,6.35,1.72,1.63,4.02,2.45,6.9,2.45,1.83,0,3.55-.33,5.17-.97,1.62-.65,2.95-1.59,4.01-2.82.63,1.12,1.51,1.98,2.64,2.56,1.12.58,2.53.96,4.22,1.13l1.74-5.48c-.67-.25-1.14-.62-1.42-1.11-.28-.49-.42-1.25-.42-2.27M462.24,32.61h-15.97v5.69h7.64v16.6h-7.91v5.69h23.4v-5.69h-7.17v-22.3ZM457.23,17.96c-1.44,0-2.63.45-3.56,1.34s-1.4,2.01-1.4,3.35.46,2.45,1.4,3.35,2.12,1.34,3.56,1.34,2.62-.44,3.53-1.32c.91-.88,1.37-2,1.37-3.37s-.46-2.45-1.37-3.35c-.91-.9-2.09-1.34-3.53-1.34M434.88,31.77c-2.25,0-4.15.59-5.69,1.76-1.55,1.18-2.83,2.96-3.85,5.35l-1.48-6.27h-10.07v5.53h3.69v16.87h-3.69v5.59h17.55v-5.59h-5.53v-8.01c.67-2.14,1.6-3.92,2.79-5.32,1.19-1.4,2.57-2.25,4.11-2.53v5.16h5.27l1.53-11.7c-1.4-.56-2.95-.84-4.64-.84M392.4,55.54c-1.2,0-2.12-.3-2.77-.9-.65-.6-.98-1.44-.98-2.53,0-2.81,2.25-4.22,6.75-4.22h2.06v4.59c-.49.95-1.22,1.7-2.19,2.24s-1.92.82-2.87.82M405.47,52.53v-10.96c0-6.61-4.08-9.91-12.23-9.91-1.58,0-3.35.18-5.3.55-1.95.37-3.82.89-5.61,1.55l1.9,5.53c1.33-.46,2.71-.82,4.14-1.08,1.42-.26,2.61-.4,3.56-.4,3.69,0,5.53,1.44,5.53,4.32v1h-3.74c-4.32,0-7.68.84-10.07,2.5-2.39,1.67-3.58,4.01-3.58,7.04,0,2.6.86,4.72,2.58,6.35,1.72,1.63,4.02,2.45,6.9,2.45,1.83,0,3.55-.33,5.17-.97,1.62-.65,2.95-1.59,4.01-2.82.63,1.12,1.51,1.98,2.64,2.56,1.12.58,2.53.96,4.22,1.13l1.74-5.48c-.67-.25-1.14-.62-1.42-1.11-.28-.49-.42-1.25-.42-2.27M358.61,20.64l-8.33.84v39.11h8.33v-19.34c.84-1.12,1.66-1.98,2.45-2.56.79-.58,1.61-.87,2.45-.87,1.02,0,1.72.33,2.11,1,.39.67.58,1.85.58,3.53v18.24h8.33v-20.56c0-2.67-.67-4.74-2-6.19-1.34-1.46-3.23-2.19-5.69-2.19-3.13,0-5.87,1.25-8.22,3.74v-14.76ZM318.66,60.6h8.33v-19.55c.84-1.05,1.66-1.85,2.45-2.4.79-.54,1.61-.82,2.45-.82,1.02,0,1.72.33,2.11,1,.39.67.58,1.88.58,3.64v18.13h8.33v-20.56c0-2.64-.68-4.69-2.03-6.17-1.35-1.48-3.24-2.21-5.67-2.21-1.76,0-3.33.34-4.72,1.03-1.39.68-2.72,1.73-3.98,3.14l-.58-3.22h-7.27v27.99ZM299.42,37.25c3.27,0,4.94,2.25,5.01,6.75h-10.28c.17-2.28.72-3.98,1.63-5.09.91-1.11,2.12-1.66,3.64-1.66M294.26,49.05h18.13c.1-.84.16-1.85.16-3.01,0-2.99-.54-5.56-1.61-7.72-1.07-2.16-2.59-3.81-4.56-4.96-1.97-1.14-4.29-1.71-6.96-1.71-2.85,0-5.3.66-7.35,1.98-2.06,1.32-3.62,3.11-4.69,5.38-1.07,2.27-1.61,4.8-1.61,7.62,0,2.95.55,5.54,1.66,7.77,1.11,2.23,2.75,3.97,4.93,5.22,2.18,1.25,4.83,1.87,7.96,1.87,2.28,0,4.37-.34,6.27-1.03,1.9-.68,3.53-1.62,4.9-2.82l-3.32-4.53c-2.39,1.55-4.78,2.32-7.17,2.32-3.97,0-6.22-2.12-6.75-6.38M267.33,37.14c2.85,0,4.27,1.53,4.27,4.59,0,1.62-.37,2.84-1.11,3.66-.74.83-1.79,1.24-3.16,1.24s-2.34-.42-3.11-1.26c-.77-.84-1.16-2.02-1.16-3.53s.38-2.58,1.13-3.43c.76-.84,1.8-1.26,3.14-1.26M280.29,28.13c-2.04,1.23-4.04,2.15-6.01,2.77-1.97.62-4.36.89-7.17.82-2.43,0-4.59.41-6.48,1.24-1.9.83-3.37,2.01-4.43,3.56-1.05,1.55-1.58,3.36-1.58,5.43,0,1.83.39,3.38,1.16,4.66.77,1.28,2.04,2.4,3.79,3.35-.98.63-1.75,1.42-2.29,2.35-.54.93-.82,1.92-.82,2.98,0,1.62.72,2.94,2.16,3.98,1.44,1.04,3.6,1.55,6.48,1.55h4.43c1.34,0,2.35.26,3.03.77.68.51,1.03,1.19,1.03,2.03,0,1.02-.47,1.81-1.4,2.37-.93.56-2.63.84-5.09.84-1.76,0-3.09-.12-4.01-.37-.91-.25-1.54-.62-1.87-1.11-.33-.49-.5-1.18-.5-2.05h-7.38c0,1.97.4,3.6,1.19,4.9.79,1.3,2.18,2.31,4.16,3.03,1.99.72,4.72,1.08,8.2,1.08,4.88,0,8.6-.82,11.15-2.45,2.55-1.63,3.82-3.91,3.82-6.83,0-1.55-.44-2.93-1.32-4.16-.88-1.23-2.13-2.19-3.74-2.9-1.62-.7-3.48-1.05-5.59-1.05h-4.64c-1.23,0-2.05-.15-2.45-.45-.4-.3-.61-.71-.61-1.24,0-.32.08-.62.24-.92.16-.3.38-.52.66-.66,1.02.21,2.11.32,3.27.32,2.35,0,4.43-.4,6.22-1.21,1.79-.81,3.18-1.92,4.16-3.35.98-1.42,1.48-3.03,1.48-4.82s-.45-3.2-1.34-4.32-2.26-2.09-4.09-2.9c3.55,0,6.24-.37,8.06-1.11l-1.9-6.11ZM223.79,60.6h8.33v-19.55c.84-1.05,1.66-1.85,2.45-2.4.79-.54,1.61-.82,2.45-.82,1.02,0,1.72.33,2.11,1,.39.67.58,1.88.58,3.64v18.13h8.33v-20.56c0-2.64-.68-4.69-2.03-6.17-1.35-1.48-3.24-2.21-5.67-2.21-1.76,0-3.33.34-4.72,1.03s-2.71,1.73-3.98,3.14l-.58-3.22h-7.27v27.99ZM202.02,30.24h14.34l.9-6.17h-23.88v36.53h23.88v-6.22h-15.23v-9.33h12.65v-6.01h-12.65v-8.8Z"/>
  <path class="cls-1" d="M77.73,207.27h3.11v-3.11h-3.11v3.11ZM279.81,205.71h5.44v5.44h-5.44v-5.44ZM323.34,151.3h-5.44v-5.44h5.44v5.44ZM317.9,140.42v5.44h-5.44v-5.44h-27.2v5.44h-5.44v5.44h-5.44v27.21h10.88v5.44h10.88v5.44h16.32v5.44h5.44v10.88h-5.44v5.44h-16.32v-5.44h-5.44v-5.44h-5.44v-5.44h-5.44v-5.44h-5.44v27.2h10.88v-5.44h5.44v5.44h32.64v-5.44h5.44v-5.44h5.44v-27.2h-10.88v-5.44h-10.88v-5.44h-16.32v-5.44h-5.44v-10.88h5.44v-5.44h10.88v5.44h10.88v10.88h5.44v5.44h5.44v-27.2h-10.88ZM21.76,188.61h3.11v-3.11h3.11v-3.11h9.33v-3.11h9.33v18.65h-3.11v3.11h-3.11v3.11h-6.22v3.11h-6.22v-3.11h-6.22v-15.55ZM21.76,138.87v3.11h-9.33v3.11h-3.11v3.11h-3.11v6.22h-3.11v12.44h3.11v3.11h12.44v-3.11h3.11v-12.44h-3.11v-3.11h3.11v-3.11h18.65v3.11h3.11v3.11h3.11v18.65h-9.33v3.11h-9.33v3.11h-9.33v3.11h-6.22v3.11h-6.22v3.11h-3.11v3.11H0v18.66h3.11v3.11h3.11v3.11h9.33v3.11h9.33v-3.11h9.33v-3.11h3.11v-3.11h3.11v-3.11h3.11v-3.11h3.11v-3.11h3.11v-3.11h3.11v3.11h-3.11v6.22h-3.11v6.22h3.11v3.11h21.76v-3.11h3.11v-3.11h3.11v-3.11h-9.33v-49.74h-3.11v-9.33h-3.11v-3.11h-6.22v-3.11h-6.22v-3.11h-27.98ZM127.47,138.87v7.77h-7.77v7.77h-7.77v-7.77h7.77v-7.77h-23.32v7.77h-7.77v7.77h7.77v54.41h-7.77v7.77h38.86v-7.77h-7.77v-54.41h23.32v54.41h-7.77v7.77h46.63v-7.77h-15.54v-62.18h-7.77v-7.77h-31.09ZM209.86,163.74h1.56v-6.22h1.55v-4.66h1.55v-1.56h1.55v-3.11h3.11v-1.56h3.11v-1.55h4.66v1.55h3.11v1.56h3.11v1.55h1.56v3.11h1.55v1.56h1.55v4.66h1.55v6.22h1.56v29.53h-1.56v6.22h-1.55v3.11h-1.55v1.55h-1.55v1.55h-1.56v1.56h-1.55v1.56h-10.88v-1.56h-1.55v-1.56h-1.56v-1.55h-1.55v-1.55h-1.55v-3.11h-1.55v-4.66h-1.55v-7.77h-1.56v-24.87ZM214.52,138.87v1.56h-4.66v1.56h-3.11v1.55h-3.11v1.55h-1.56v1.55h-1.55v1.56h-3.11v1.55h-1.55v3.11h-1.56v1.56h-1.55v3.11h-1.55v1.56h-1.55v4.66h-1.56v4.66h-1.55v21.76h1.55v4.66h1.56v3.11h1.55v3.11h1.55v1.56h1.55v1.56h1.56v3.11h3.11v1.56h1.55v1.56h1.55v1.55h3.11v1.55h1.55v1.56h4.66v1.56h4.66v1.55h18.65v-1.55h4.66v-1.56h3.11v-1.56h3.11v-1.55h3.11v-1.55h1.55v-1.56h1.56v-1.56h1.56v-1.55h1.55v-1.55h1.55v-3.11h1.55v-1.55h1.55v-3.11h1.55v-4.66h1.55v-6.22h1.55v-15.54h-1.55v-6.22h-1.55v-4.66h-1.55v-3.11h-1.55v-1.55h-1.55v-1.56h-1.55v-3.11h-1.55v-1.55h-1.56v-1.56h-3.11v-1.55h-1.55v-1.55h-3.11v-1.55h-3.11v-1.56h-4.66v-1.56h-21.76Z"/>
  <path class="cls-1" d="M111.92,24.87h7.77v-7.77h23.32v15.54h7.77v62.18h-7.77v15.55h-23.32v-15.55h-7.77V24.87ZM111.92,9.33v7.77h-7.77v7.77h-7.77v7.77h-7.77v62.18h7.77v7.77h7.77v7.77h7.77v7.77h38.86v-7.77h7.77v-7.77h7.77v-7.77h7.77v-62.18h-7.77v-7.77h-7.77v-7.77h-7.77v-7.77h-38.86ZM66.84,0v3.11h-1.56v1.55h-1.55v1.55h-1.56v1.56h-3.11v1.55H12.44v4.66h-1.55v17.1h-1.55v15.54h-1.56v17.1h-1.55v3.11h4.66v-1.55h7.77v-1.55h18.65v1.55h4.66v1.55h3.11v1.55h3.11v1.55h1.55v1.56h1.55v3.11h1.56v3.11h1.55v18.65h-1.55v4.66h-1.56v1.55h-1.55v3.11h-1.55v1.55h-1.56v1.55h-3.11v1.56h-3.11v1.56h-15.54v-1.56h-3.11v-1.56h-1.55v-1.55h-1.56v-3.11h-1.56v-4.66h-1.55v-1.55h4.66v-9.33h-1.56v-3.11h-3.11v-1.55H4.66v1.55h-1.56v3.11h-1.56v4.66H0v1.55h1.55v7.77h1.56v3.11h1.56v1.55h1.55v1.55h1.55v1.56h1.56v1.56h1.55v1.55h3.11v1.56h3.11v1.55h3.11v1.56h4.66v1.55h21.76v-1.55h4.66v-1.56h4.66v-1.55h1.55v-1.56h3.11v-1.55h1.55v-1.56h3.11v-1.56h1.56v-1.55h1.55v-3.11h1.56v-1.56h1.55v-1.55h1.56v-3.11h1.55v-4.66h1.55v-4.66h1.55v-15.54h-1.55v-4.66h-1.55v-3.11h-1.55v-3.11h-1.56v-1.55h-1.55v-1.55h-1.56v-1.56h-1.55v-1.55h-1.56v-1.56h-1.55v-1.55h-3.11v-1.55h-3.11v-1.55h-3.11v-1.56h-6.22v-1.55h-27.98v1.55h-4.66v-7.77h1.55v-15.54h1.56v-6.22h3.11v6.22h48.19v-7.77h1.55V0h-4.66Z"/>
</svg>